:SAMPLES-PER-SECOND 30
:FULLY-SPECIFIED
:DEGREES
406
root  26.5916 39.0986 -33.3202 -0.487 -50.5891 -3.31287
RightUpLeg  -17.6167 -32.7921 5.04391
RightLeg  21.2813 -8.62028 -2.25219
RightFoot  -5.16303 0.389862 -7.76475
RightToes  0.00048216 0.542163 -0.142577
Spine  21.4296 -2.43833 5.49027
Spine1  5.15381 -1.22537 -0.495283
HEad  -10.8653 -19.9558 10.6565
LeftShoulder1  7.18373 -11.8913 -40.3897
LeftArm  -25.128 35.5632 -17.4719
LeftForeArm  83.1948 -78.8852 -101.273
LeftHand  -0.25398 0.0180481 5.50724
RightShoulder  5.75808 10.0804 36.3965
RightArm  1.55419 -10.0318 31.3771
RightForeArm  41.0864 77.9202 91.9055
RightHand  0.761042 -12.2077 -13.7817
LeftUpLeg  9.44748 26.0778 22.2287
LeftLeg  35.1536 13.6168 10.4009
LeftFoot  4.89369 -0.240214 1.40089
LeftToes  1.06245e-005 4.65855e-005 -8.18504e-006
407
root  25.5029 39.0573 -32.9761 -0.817383 -53.619 -3.93604
RightUpLeg  -15.1604 -29.8153 4.5774
RightLeg  22.9301 -8.66842 -2.30661
RightFoot  -7.25841 0.193124 -6.78997
RightToes  0.00048216 0.542163 -0.142577
Spine  21.5267 -3.24491 6.82613
Spine1  5.8587 -1.59494 -0.477669
HEad  -8.97876 -18.617 9.27609
LeftShoulder1  7.26858 -12.0244 -40.5284
LeftArm  -23.8442 33.389 -16.8806
LeftForeArm  76.2087 -79.0715 -94.1941
LeftHand  -0.25398 0.0180481 5.50724
RightShoulder  5.70261 9.95213 36.3887
RightArm  1.12791 -9.85919 31.2293
RightForeArm  40.056 77.9088 91.4017
RightHand  0.744746 -12.09 -13.8016
LeftUpLeg  4.35493 19.8399 18.0255
LeftLeg  43.0432 7.27319 7.68843
LeftFoot  1.49035 0.0570769 -0.572922
LeftToes  1.06245e-005 4.65855e-005 -8.18504e-006
408
root  24.3141 39.239 -32.5656 -1.42023 -57.1698 -3.98859
RightUpLeg  -11.4596 -24.398 3.41453
RightLeg  22.2969 -10.8042 -1.68791
RightFoot  -8.58354 0.0934866 -6.31014
RightToes  0.00048216 0.542163 -0.142577
Spine  21.2302 -3.45411 7.98349
Spine1  6.10963 -1.32427 -1.27761
HEad  -6.52979 -17.6986 7.40884
LeftShoulder1  7.31816 -12.0965 -40.6243
LeftArm  -22.5761 31.2875 -16.879
LeftForeArm  72.093 -79.1319 -89.3498
LeftHand  -0.25398 0.0180481 5.50724
RightShoulder  5.61639 9.76729 36.331
RightArm  0.339145 -10.5803 30.7067
RightForeArm  38.78 77.8685 91.6653
RightHand  0.849811 -12.8919 -13.981
LeftUpLeg  0.278096 15.9887 14.1309
LeftLeg  47.6677 5.77008 7.20169
LeftFoot  0.430397 0.208266 -2.03013
LeftToes  1.06245e-005 4.65855e-005 -8.18504e-006
409
root  23.0492 39.5669 -32.1515 -2.71277 -61.5254 -2.89862
RightUpLeg  -7.47414 -17.4908 2.16861
RightLeg  19.9262 -13.6344 -0.63883
RightFoot  -9.21215 0.0536704 -6.21871
RightToes  0.00048216 0.542163 -0.142577
Spine  20.682 -3.12918 8.17998
Spine1  5.97013 -0.77833 -2.30817
HEad  -4.3004 -16.1893 5.46981
LeftShoulder1  7.28569 -12.0006 -40.6999
LeftArm  -22.1212 30.1774 -17.4523
LeftForeArm  73.4474 -79.1755 -89.6483
LeftHand  -0.25398 0.0180481 5.50724
RightShoulder  5.57793 9.75613 36.0833
RightArm  -0.131251 -11.4576 30.0861
RightForeArm  36.1459 77.7998 91.856
RightHand  0.901837 -12.4054 -15.7239
LeftUpLeg  -3.157 13.6437 10.2111
LeftLeg  48.6333 6.95831 8.79637
LeftFoot  -0.0328093 0.194668 -1.95744
LeftToes  1.06245e-005 4.65855e-005 -8.18504e-006
410
root  21.7136 39.8485 -31.7789 -3.66882 -66.376 -1.85608
RightUpLeg  -3.79806 -11.4982 1.77651
RightLeg  16.8552 -14.7817 0.666691
RightFoot  -9.43169 0.0311326 -5.68583
RightToes  0.00048216 0.542163 -0.142577
Spine  19.6128 -2.51078 8.21015
Spine1  5.9114 -0.0597615 -3.23745
HEad  -2.53088 -14.0101 3.73457
LeftShoulder1  7.22502 -11.8353 -40.8034
LeftArm  -22.0751 29.7794 -17.9813
LeftForeArm  77.1143 -79.1992 -92.5591
LeftHand  -0.25398 0.0180481 5.50724
RightShoulder  5.53843 9.82371 35.5842
RightArm  -0.307867 -12.4219 29.8458
RightForeArm  34.9159 77.7437 92.7849
RightHand  0.855841 -11.4467 -17.1383
LeftUpLeg  -6.37202 12.3879 7.27903
LeftLeg  46.7579 8.39099 9.84154
LeftFoot  -1.33371 0.157156 -1.71194
LeftToes  1.06245e-005 4.65855e-005 -8.18504e-006
411
root  20.2934 40.056 -31.4526 -3.89301 -71.7176 -1.89648
RightUpLeg  0.38005 -7.14743 2.33937
RightLeg  13.2191 -13.7333 1.693
RightFoot  -9.40219 0.0249735 -5.21958
RightToes  0.00048216 0.542163 -0.142577
Spine  18.632 -1.64111 8.65949
Spine1  5.97899 1.0108 -4.2578
HEad  -1.0071 -11.5996 2.14847
LeftShoulder1  7.18216 -11.7207 -40.8715
LeftArm  -21.8548 29.5561 -18.1998
LeftForeArm  79.122 -79.1861 -94.418
LeftHand  -0.25398 0.0180481 5.50724
RightShoulder  5.45701 9.79461 35.0726
RightArm  -0.550751 -13.5133 30.0425
RightForeArm  36.3495 77.7041 94.7778
RightHand  0.891165 -11.72 -17.0858
LeftUpLeg  -8.58492 12.5532 6.00407
LeftLeg  42.3174 8.51792 8.62489
LeftFoot  -2.32599 0.181757 -2.12639
LeftToes  1.06245e-005 4.65855e-005 -8.18504e-006
412
root  18.8475 40.2329 -31.147 -4.40601 -77.0216 -1.91504
RightUpLeg  5.09038 -5.07482 2.90863
RightLeg  9.26146 -10.6501 2.06218
RightFoot  -9.35651 0.0299941 -5.3826
RightToes  0.00048216 0.542163 -0.142577
Spine  17.9999 -0.79189 9.08067
Spine1  6.11982 2.08292 -5.33335
HEad  0.227352 -9.08464 0.688827
LeftShoulder1  7.14389 -11.632 -40.8935
LeftArm  -21.6211 29.4374 -18.2657
LeftForeArm  79.3729 -79.1753 -94.8122
LeftHand  -0.25398 0.0180481 5.50724
RightShoulder  5.39371 9.71659 34.8401
RightArm  -0.993436 -14.3911 30.4158
RightForeArm  38.4998 77.662 96.8346
RightHand  0.955416 -12.1918 -17.0175
LeftUpLeg  -9.73025 13.2912 5.3787
LeftLeg  35.5216 7.26651 5.92005
LeftFoot  -2.2189 0.228714 -2.69677
LeftToes  1.06245e-005 4.65855e-005 -8.18504e-006
413
root  17.4236 40.3061 -30.8162 -6.17438 -81.1882 -0.650146
RightUpLeg  9.40619 -4.93772 2.56209
RightLeg  6.34925 -6.84091 2.04392
RightFoot  -9.87109 0.0034004 -5.40899
RightToes  0.00048216 0.542163 -0.142577
Spine  17.4831 -0.537863 9.31878
Spine1  6.32263 2.47964 -6.14325
HEad  0.892696 -6.40612 -0.516661
LeftShoulder1  7.08431 -11.4804 -40.968
LeftArm  -21.7702 29.4209 -18.3019
LeftForeArm  79.4965 -79.1682 -94.9784
LeftHand  -0.25398 0.0180481 5.50724
RightShoulder  5.38399 9.68602 34.8605
RightArm  -1.50926 -14.7709 30.8718
RightForeArm  39.9783 77.6223 98.2736
RightHand  0.913511 -11.6263 -17.711
LeftUpLeg  -10.471 12.898 4.58492
LeftLeg  27.2675 5.43028 3.40386
LeftFoot  -1.59882 0.305269 -3.46696
LeftToes  1.06245e-005 4.65855e-005 -8.18504e-006
414
root  16.0021 40.2197 -30.4334 -8.75244 -83.4466 1.38745
RightUpLeg  12.9421 -5.61575 1.40052
RightLeg  5.35154 -3.93682 2.19918
RightFoot  -11.1613 -0.0675244 -4.91575
RightToes  0.00048216 0.542163 -0.142577
Spine  17.1595 -1.18007 9.60226
Spine1  6.40375 1.88964 -6.62379
HEad  0.976853 -3.73914 -1.4271
LeftShoulder1  7.0013 -11.2674 -41.0792
LeftArm  -22.2129 29.3036 -18.3744
LeftForeArm  79.7715 -79.1654 -95.2089
LeftHand  -0.25398 0.0180481 5.50724
RightShoulder  5.39019 9.67635 34.9364
RightArm  -1.9444 -14.805 31.3397
RightForeArm  41.5664 77.5825 99.6151
RightHand  0.89556 -11.4836 -17.7902
LeftUpLeg  -11.2216 11.048 3.58228
LeftLeg  18.6837 4.0022 1.71217
LeftFoot  -0.696481 0.401341 -4.26561
LeftToes  1.06245e-005 4.65855e-005 -8.18504e-006
415
root  14.5519 40.0673 -30.0692 -11.6116 -85.0976 4.23651
RightUpLeg  15.4686 -6.17919 0.196915
RightLeg  5.26982 -1.72781 2.36433
RightFoot  -12.645 -0.139909 -4.704
RightToes  0.00048216 0.542163 -0.142577
Spine  16.3051 -1.78386 9.62432
Spine1  6.72062 1.21535 -6.911
HEad  0.752819 -1.35502 -2.10744
LeftShoulder1  6.90685 -11.0629 -41.0938
LeftArm  -22.6122 28.9913 -18.6133
LeftForeArm  79.9439 -79.1637 -95.3874
LeftHand  -0.25398 0.0180481 5.50724
RightShoulder  5.40433 9.68418 35.0178
RightArm  -2.2492 -14.7266 31.5365
RightForeArm  43.6483 77.5344 101.152
RightHand  1.05126 -13.0828 -16.5602
LeftUpLeg  -12.3224 8.43885 3.22147
LeftLeg  10.2204 5.82035 -0.397544
LeftFoot  0.783669 0.495017 -4.69991
LeftToes  1.06245e-005 4.65855e-005 -8.18504e-006
416
root  13.0527 39.8879 -29.7625 -20.8267 -87.0729 13.6424
RightUpLeg  17.6528 -6.44031 -1.01785
RightLeg  5.43376 0.457861 2.26194
RightFoot  -14.3416 -0.217842 -4.64177
RightToes  0.00048216 0.542163 -0.142577
Spine  15.1473 -1.80953 9.02325
Spine1  7.49913 1.04915 -6.89271
HEad  0.515711 0.535356 -2.50134
LeftShoulder1  6.82215 -10.9133 -41.0035
LeftArm  -22.7885 28.4512 -18.9938
LeftForeArm  79.9897 -79.1683 -95.345
LeftHand  -0.25398 0.0180481 5.50724
RightShoulder  5.4471 9.75032 35.134
RightArm  -2.55078 -14.6118 31.3885
RightForeArm  45.0689 77.5009 102.136
RightHand  1.18648 -14.7035 -15.408
LeftUpLeg  -12.9562 4.80019 4.07825
LeftLeg  2.05055 13.5027 -4.10393
LeftFoot  1.91242 0.657138 -5.75881
LeftToes  1.06245e-005 4.65855e-005 -8.18504e-006
417
root  11.4628 39.6013 -29.4615 -38.1594 -88.4126 30.4008
RightUpLeg  20.6499 -6.91871 -2.53692
RightLeg  6.06526 2.55341 2.22962
RightFoot  -16.3747 -0.267671 -3.61282
RightToes  0.00048216 0.542163 -0.142577
Spine  14.4954 -1.82026 8.30924
Spine1  8.39535 0.873801 -6.54036
HEad  0.56489 1.66074 -2.44581
LeftShoulder1  6.77356 -10.8485 -40.8859
LeftArm  -22.5552 27.4492 -19.267
LeftForeArm  79.2121 -79.2022 -94.1845
LeftHand  -0.25398 0.0180481 5.50724
RightShoulder  5.48043 9.80747 35.2067
RightArm  -3.11295 -14.7118 31.2377
RightForeArm  45.3001 77.4946 102.301
RightHand  1.14827 -14.2984 -15.6265
LeftUpLeg  -12.7069 5.4698 3.79684
LeftLeg  -3.87618 19.0731 -7.45244
LeftFoot  1.19048 0.86695 -7.98742
LeftToes  1.06245e-005 4.65855e-005 -8.18504e-006
418
root  9.74586 39.2068 -29.1361 -51.5878 -88.9799 42.7138
RightUpLeg  24.2689 -7.52754 -4.05021
RightLeg  7.26269 4.31676 2.43194
RightFoot  -17.9755 -0.225736 -1.78096
RightToes  0.00048216 0.542163 -0.142577
Spine  14.1464 -2.03362 8.1848
Spine1  9.15267 0.616975 -6.41746
HEad  1.16941 1.91843 -1.91707
LeftShoulder1  6.7421 -10.8542 -40.6623
LeftArm  -21.6728 25.9987 -19.3724
LeftForeArm  77.3352 -79.2478 -91.7851
LeftHand  -0.25398 0.0180481 5.50724
RightShoulder  5.45935 9.76954 35.1662
RightArm  -3.97074 -15.458 31.2156
RightForeArm  45.4396 77.468 102.725
RightHand  1.0217 -12.8987 -16.476
LeftUpLeg  -12.5942 5.60375 3.07431
LeftLeg  -4.56516 23.1235 -8.83634
LeftFoot  -0.464099 0.84963 -8.80171
LeftToes  1.06245e-005 4.65855e-005 -8.18504e-006
